<mxfile host="app.diagrams.net" modified="2020-05-13T22:48:12.662Z" agent="5.0 (X11)" etag="m6qqhmVqC3NHYA-Jc9g-" version="13.1.1" type="github">
  <diagram id="4lUxp6aQmK8AmspvqEY6" name="Page-1">
    <mxGraphModel dx="2031" dy="1134" grid="1" gridSize="10" guides="1" tooltips="1" connect="1" arrows="1" fold="1" page="1" pageScale="1" pageWidth="1100" pageHeight="850" math="0" shadow="0">
      <root>
        <mxCell id="0" />
        <mxCell id="1" parent="0" />
        <mxCell id="sIDR_PX_A5w2goP3o4VN-86" value="" style="group" vertex="1" connectable="0" parent="1">
          <mxGeometry x="270" y="120" width="277" height="440" as="geometry" />
        </mxCell>
        <mxCell id="sIDR_PX_A5w2goP3o4VN-83" value="" style="rounded=0;whiteSpace=wrap;html=1;strokeColor=#36393d;fillColor=#f9f7ed;" vertex="1" parent="sIDR_PX_A5w2goP3o4VN-86">
          <mxGeometry width="270" height="440" as="geometry" />
        </mxCell>
        <mxCell id="sIDR_PX_A5w2goP3o4VN-78" value="" style="endArrow=classic;html=1;dashed=1;strokeColor=#000000;" edge="1" parent="sIDR_PX_A5w2goP3o4VN-86">
          <mxGeometry width="50" height="50" relative="1" as="geometry">
            <mxPoint x="160" y="210" as="sourcePoint" />
            <mxPoint x="210" y="160" as="targetPoint" />
          </mxGeometry>
        </mxCell>
        <mxCell id="sIDR_PX_A5w2goP3o4VN-80" value="&lt;div style=&quot;font-size: 16px&quot;&gt;&lt;font style=&quot;font-size: 16px&quot;&gt;&lt;b&gt;API Requests&lt;br&gt;&lt;/b&gt;&lt;/font&gt;&lt;/div&gt;" style="text;html=1;align=center;verticalAlign=middle;resizable=0;points=[];autosize=1;" vertex="1" parent="sIDR_PX_A5w2goP3o4VN-86">
          <mxGeometry x="65" y="10" width="120" height="20" as="geometry" />
        </mxCell>
        <mxCell id="sIDR_PX_A5w2goP3o4VN-2" value="" style="rounded=0;whiteSpace=wrap;html=1;" vertex="1" parent="sIDR_PX_A5w2goP3o4VN-86">
          <mxGeometry x="10" y="80" width="230" height="345" as="geometry" />
        </mxCell>
        <mxCell id="sIDR_PX_A5w2goP3o4VN-73" value="" style="rounded=0;whiteSpace=wrap;html=1;strokeColor=#B5739D;fillColor=#E6E6E6;" vertex="1" parent="sIDR_PX_A5w2goP3o4VN-86">
          <mxGeometry x="35" y="120" width="180" height="75" as="geometry" />
        </mxCell>
        <mxCell id="sIDR_PX_A5w2goP3o4VN-69" style="edgeStyle=none;rounded=0;orthogonalLoop=1;jettySize=auto;html=1;exitX=1;exitY=0.75;exitDx=0;exitDy=0;entryX=0.005;entryY=0.63;entryDx=0;entryDy=0;entryPerimeter=0;dashed=1;strokeColor=#000000;" edge="1" parent="sIDR_PX_A5w2goP3o4VN-86" target="sIDR_PX_A5w2goP3o4VN-15">
          <mxGeometry relative="1" as="geometry">
            <mxPoint x="115" y="375.45000000000005" as="sourcePoint" />
          </mxGeometry>
        </mxCell>
        <mxCell id="sIDR_PX_A5w2goP3o4VN-66" value="" style="rounded=1;whiteSpace=wrap;html=1;strokeColor=#B5739D;fillColor=#E6E6E6;" vertex="1" parent="sIDR_PX_A5w2goP3o4VN-86">
          <mxGeometry x="25" y="300" width="90" height="92.6" as="geometry" />
        </mxCell>
        <mxCell id="sIDR_PX_A5w2goP3o4VN-9" value="" style="group" vertex="1" connectable="0" parent="sIDR_PX_A5w2goP3o4VN-86">
          <mxGeometry x="95" y="50" width="60" height="60" as="geometry" />
        </mxCell>
        <mxCell id="sIDR_PX_A5w2goP3o4VN-8" value="" style="ellipse;whiteSpace=wrap;html=1;aspect=fixed;fillColor=#99FF99;" vertex="1" parent="sIDR_PX_A5w2goP3o4VN-9">
          <mxGeometry width="60" height="60" as="geometry" />
        </mxCell>
        <mxCell id="sIDR_PX_A5w2goP3o4VN-4" value="" style="aspect=fixed;pointerEvents=1;shadow=0;dashed=0;html=1;strokeColor=none;labelPosition=center;verticalLabelPosition=bottom;verticalAlign=top;align=center;fillColor=#00188D;shape=mxgraph.azure.load_balancer_generic" vertex="1" parent="sIDR_PX_A5w2goP3o4VN-9">
          <mxGeometry x="16.5" y="11.25" width="27.75" height="37.5" as="geometry" />
        </mxCell>
        <mxCell id="sIDR_PX_A5w2goP3o4VN-81" style="edgeStyle=none;rounded=0;orthogonalLoop=1;jettySize=auto;html=1;entryX=0.5;entryY=0;entryDx=0;entryDy=0;strokeColor=#000000;" edge="1" parent="sIDR_PX_A5w2goP3o4VN-86" source="sIDR_PX_A5w2goP3o4VN-80" target="sIDR_PX_A5w2goP3o4VN-8">
          <mxGeometry relative="1" as="geometry" />
        </mxCell>
        <mxCell id="sIDR_PX_A5w2goP3o4VN-12" value="" style="group" vertex="1" connectable="0" parent="sIDR_PX_A5w2goP3o4VN-86">
          <mxGeometry x="39.06" y="140" width="171.88" height="50" as="geometry" />
        </mxCell>
        <mxCell id="sIDR_PX_A5w2goP3o4VN-5" value="" style="html=1;dashed=0;whitespace=wrap;fillColor=#2875E2;strokeColor=#ffffff;points=[[0.005,0.63,0],[0.1,0.2,0],[0.9,0.2,0],[0.5,0,0],[0.995,0.63,0],[0.72,0.99,0],[0.5,1,0],[0.28,0.99,0]];shape=mxgraph.kubernetes.icon;prIcon=pod" vertex="1" parent="sIDR_PX_A5w2goP3o4VN-12">
          <mxGeometry width="52.08484848484848" height="50" as="geometry" />
        </mxCell>
        <mxCell id="sIDR_PX_A5w2goP3o4VN-6" value="" style="html=1;dashed=0;whitespace=wrap;fillColor=#CC6600;strokeColor=#ffffff;points=[[0.005,0.63,0],[0.1,0.2,0],[0.9,0.2,0],[0.5,0,0],[0.995,0.63,0],[0.72,0.99,0],[0.5,1,0],[0.28,0.99,0]];shape=mxgraph.kubernetes.icon;prIcon=pod" vertex="1" parent="sIDR_PX_A5w2goP3o4VN-12">
          <mxGeometry x="119.7951515151515" width="52.08484848484848" height="50" as="geometry" />
        </mxCell>
        <mxCell id="sIDR_PX_A5w2goP3o4VN-7" value="" style="html=1;dashed=0;whitespace=wrap;fillColor=#2875E2;strokeColor=#ffffff;points=[[0.005,0.63,0],[0.1,0.2,0],[0.9,0.2,0],[0.5,0,0],[0.995,0.63,0],[0.72,0.99,0],[0.5,1,0],[0.28,0.99,0]];shape=mxgraph.kubernetes.icon;prIcon=pod" vertex="1" parent="sIDR_PX_A5w2goP3o4VN-12">
          <mxGeometry x="60.41842424242424" width="52.08484848484848" height="50" as="geometry" />
        </mxCell>
        <mxCell id="sIDR_PX_A5w2goP3o4VN-15" value="" style="html=1;dashed=0;whitespace=wrap;fillColor=#2875E2;strokeColor=#ffffff;points=[[0.005,0.63,0],[0.1,0.2,0],[0.9,0.2,0],[0.5,0,0],[0.995,0.63,0],[0.72,0.99,0],[0.5,1,0],[0.28,0.99,0]];shape=mxgraph.kubernetes.icon;prIcon=vol" vertex="1" parent="sIDR_PX_A5w2goP3o4VN-86">
          <mxGeometry x="175" y="345.4" width="50" height="48" as="geometry" />
        </mxCell>
        <mxCell id="sIDR_PX_A5w2goP3o4VN-21" value="&lt;font style=&quot;font-size: 16px&quot;&gt;&lt;b&gt;Task Queue&lt;br&gt;&lt;/b&gt;&lt;/font&gt;" style="aspect=fixed;pointerEvents=1;shadow=0;dashed=0;html=1;strokeColor=none;labelPosition=center;verticalLabelPosition=bottom;verticalAlign=top;align=center;fillColor=#00188D;shape=mxgraph.azure.queue_generic" vertex="1" parent="sIDR_PX_A5w2goP3o4VN-86">
          <mxGeometry x="27" y="234.60000000000002" width="68" height="20.4" as="geometry" />
        </mxCell>
        <mxCell id="sIDR_PX_A5w2goP3o4VN-44" style="edgeStyle=orthogonalEdgeStyle;rounded=0;orthogonalLoop=1;jettySize=auto;html=1;exitX=0.5;exitY=1;exitDx=0;exitDy=0;entryX=0.5;entryY=0;entryDx=0;entryDy=0;entryPerimeter=0;" edge="1" parent="sIDR_PX_A5w2goP3o4VN-86" source="sIDR_PX_A5w2goP3o4VN-8" target="sIDR_PX_A5w2goP3o4VN-7">
          <mxGeometry relative="1" as="geometry" />
        </mxCell>
        <mxCell id="sIDR_PX_A5w2goP3o4VN-45" style="edgeStyle=orthogonalEdgeStyle;rounded=0;orthogonalLoop=1;jettySize=auto;html=1;entryX=0.5;entryY=0;entryDx=0;entryDy=0;entryPerimeter=0;exitX=0.788;exitY=0.89;exitDx=0;exitDy=0;exitPerimeter=0;" edge="1" parent="sIDR_PX_A5w2goP3o4VN-86" source="sIDR_PX_A5w2goP3o4VN-8" target="sIDR_PX_A5w2goP3o4VN-6">
          <mxGeometry relative="1" as="geometry" />
        </mxCell>
        <mxCell id="sIDR_PX_A5w2goP3o4VN-46" style="edgeStyle=orthogonalEdgeStyle;rounded=0;orthogonalLoop=1;jettySize=auto;html=1;exitX=0;exitY=1;exitDx=0;exitDy=0;entryX=0.5;entryY=0;entryDx=0;entryDy=0;entryPerimeter=0;" edge="1" parent="sIDR_PX_A5w2goP3o4VN-86" source="sIDR_PX_A5w2goP3o4VN-8" target="sIDR_PX_A5w2goP3o4VN-5">
          <mxGeometry relative="1" as="geometry" />
        </mxCell>
        <mxCell id="sIDR_PX_A5w2goP3o4VN-47" style="edgeStyle=orthogonalEdgeStyle;rounded=0;orthogonalLoop=1;jettySize=auto;html=1;exitX=0.5;exitY=1;exitDx=0;exitDy=0;exitPerimeter=0;entryX=0.183;entryY=-0.081;entryDx=0;entryDy=0;entryPerimeter=0;" edge="1" parent="sIDR_PX_A5w2goP3o4VN-86" source="sIDR_PX_A5w2goP3o4VN-5" target="sIDR_PX_A5w2goP3o4VN-21">
          <mxGeometry relative="1" as="geometry" />
        </mxCell>
        <mxCell id="sIDR_PX_A5w2goP3o4VN-51" style="edgeStyle=orthogonalEdgeStyle;rounded=0;orthogonalLoop=1;jettySize=auto;html=1;entryX=0.736;entryY=-0.081;entryDx=0;entryDy=0;entryPerimeter=0;exitX=0.5;exitY=1;exitDx=0;exitDy=0;exitPerimeter=0;" edge="1" parent="sIDR_PX_A5w2goP3o4VN-86" source="sIDR_PX_A5w2goP3o4VN-7" target="sIDR_PX_A5w2goP3o4VN-21">
          <mxGeometry relative="1" as="geometry" />
        </mxCell>
        <mxCell id="sIDR_PX_A5w2goP3o4VN-52" style="edgeStyle=orthogonalEdgeStyle;rounded=0;orthogonalLoop=1;jettySize=auto;html=1;entryX=0.488;entryY=-0.078;entryDx=0;entryDy=0;entryPerimeter=0;exitX=0.5;exitY=1;exitDx=0;exitDy=0;exitPerimeter=0;" edge="1" parent="sIDR_PX_A5w2goP3o4VN-86" source="sIDR_PX_A5w2goP3o4VN-6" target="sIDR_PX_A5w2goP3o4VN-21">
          <mxGeometry relative="1" as="geometry">
            <mxPoint x="60" y="232" as="targetPoint" />
          </mxGeometry>
        </mxCell>
        <mxCell id="sIDR_PX_A5w2goP3o4VN-55" value="" style="group" vertex="1" connectable="0" parent="sIDR_PX_A5w2goP3o4VN-86">
          <mxGeometry x="145" y="224.8" width="80" height="75.19999999999999" as="geometry" />
        </mxCell>
        <mxCell id="sIDR_PX_A5w2goP3o4VN-35" value="" style="group" vertex="1" connectable="0" parent="sIDR_PX_A5w2goP3o4VN-55">
          <mxGeometry x="13.329999999999984" width="53.34" height="40" as="geometry" />
        </mxCell>
        <mxCell id="sIDR_PX_A5w2goP3o4VN-22" value="" style="strokeWidth=2;dashed=0;align=center;fontSize=8;shape=rect;fillColor=#fffbc0;strokeColor=#000000;" vertex="1" parent="sIDR_PX_A5w2goP3o4VN-35">
          <mxGeometry x="20.8915" width="11.557" height="8" as="geometry" />
        </mxCell>
        <mxCell id="sIDR_PX_A5w2goP3o4VN-23" value="" style="strokeWidth=2;dashed=0;align=center;fontSize=8;shape=rect;fillColor=#fffbc0;strokeColor=#000000;" vertex="1" parent="sIDR_PX_A5w2goP3o4VN-35">
          <mxGeometry y="8" width="11.557" height="8" as="geometry" />
        </mxCell>
        <mxCell id="sIDR_PX_A5w2goP3o4VN-24" value="" style="strokeWidth=2;dashed=0;align=center;fontSize=8;shape=rect;fillColor=#fffbc0;strokeColor=#000000;" vertex="1" parent="sIDR_PX_A5w2goP3o4VN-35">
          <mxGeometry x="41.783" y="8" width="11.557" height="8" as="geometry" />
        </mxCell>
        <mxCell id="sIDR_PX_A5w2goP3o4VN-25" value="" style="strokeWidth=2;dashed=0;align=center;fontSize=8;shape=rect;fillColor=#fffbc0;strokeColor=#000000;" vertex="1" parent="sIDR_PX_A5w2goP3o4VN-35">
          <mxGeometry y="24" width="11.557" height="8" as="geometry" />
        </mxCell>
        <mxCell id="sIDR_PX_A5w2goP3o4VN-26" value="" style="strokeWidth=2;dashed=0;align=center;fontSize=8;shape=rect;fillColor=#fffbc0;strokeColor=#000000;" vertex="1" parent="sIDR_PX_A5w2goP3o4VN-35">
          <mxGeometry x="41.783" y="24" width="11.557" height="8" as="geometry" />
        </mxCell>
        <mxCell id="sIDR_PX_A5w2goP3o4VN-27" value="" style="strokeWidth=2;dashed=0;align=center;fontSize=8;shape=rect;fillColor=#fffbc0;strokeColor=#000000;" vertex="1" parent="sIDR_PX_A5w2goP3o4VN-35">
          <mxGeometry x="20.8915" y="32" width="11.557" height="8" as="geometry" />
        </mxCell>
        <mxCell id="sIDR_PX_A5w2goP3o4VN-28" value="" style="strokeWidth=2;dashed=0;align=center;fontSize=8;shape=rect;fillColor=#c0f5a9;strokeColor=#000000;" vertex="1" parent="sIDR_PX_A5w2goP3o4VN-35">
          <mxGeometry x="20.8915" y="16" width="11.557" height="8" as="geometry" />
        </mxCell>
        <mxCell id="sIDR_PX_A5w2goP3o4VN-29" value="" style="edgeStyle=none;endArrow=none;dashed=0;html=1;strokeWidth=2;" edge="1" source="sIDR_PX_A5w2goP3o4VN-28" target="sIDR_PX_A5w2goP3o4VN-22" parent="sIDR_PX_A5w2goP3o4VN-35">
          <mxGeometry relative="1" as="geometry" />
        </mxCell>
        <mxCell id="sIDR_PX_A5w2goP3o4VN-30" value="" style="edgeStyle=none;endArrow=none;dashed=0;html=1;strokeWidth=2;" edge="1" source="sIDR_PX_A5w2goP3o4VN-28" target="sIDR_PX_A5w2goP3o4VN-23" parent="sIDR_PX_A5w2goP3o4VN-35">
          <mxGeometry relative="1" as="geometry" />
        </mxCell>
        <mxCell id="sIDR_PX_A5w2goP3o4VN-31" value="" style="edgeStyle=none;endArrow=none;dashed=0;html=1;strokeWidth=2;" edge="1" source="sIDR_PX_A5w2goP3o4VN-28" target="sIDR_PX_A5w2goP3o4VN-24" parent="sIDR_PX_A5w2goP3o4VN-35">
          <mxGeometry relative="1" as="geometry" />
        </mxCell>
        <mxCell id="sIDR_PX_A5w2goP3o4VN-32" value="" style="edgeStyle=none;endArrow=none;dashed=0;html=1;strokeWidth=2;" edge="1" source="sIDR_PX_A5w2goP3o4VN-28" target="sIDR_PX_A5w2goP3o4VN-25" parent="sIDR_PX_A5w2goP3o4VN-35">
          <mxGeometry relative="1" as="geometry" />
        </mxCell>
        <mxCell id="sIDR_PX_A5w2goP3o4VN-33" value="" style="edgeStyle=none;endArrow=none;dashed=0;html=1;strokeWidth=2;" edge="1" source="sIDR_PX_A5w2goP3o4VN-28" target="sIDR_PX_A5w2goP3o4VN-26" parent="sIDR_PX_A5w2goP3o4VN-35">
          <mxGeometry relative="1" as="geometry" />
        </mxCell>
        <mxCell id="sIDR_PX_A5w2goP3o4VN-34" value="" style="edgeStyle=none;endArrow=none;dashed=0;html=1;strokeWidth=2;" edge="1" source="sIDR_PX_A5w2goP3o4VN-28" target="sIDR_PX_A5w2goP3o4VN-27" parent="sIDR_PX_A5w2goP3o4VN-35">
          <mxGeometry relative="1" as="geometry" />
        </mxCell>
        <mxCell id="sIDR_PX_A5w2goP3o4VN-54" value="&lt;div style=&quot;font-size: 16px&quot;&gt;&lt;font style=&quot;font-size: 16px&quot;&gt;&lt;b&gt;Message&lt;/b&gt;&lt;/font&gt;&lt;/div&gt;&lt;div style=&quot;font-size: 16px&quot;&gt;&lt;font style=&quot;font-size: 16px&quot;&gt;&lt;b&gt;Broker&lt;br&gt;&lt;/b&gt;&lt;/font&gt;&lt;/div&gt;" style="text;html=1;align=center;verticalAlign=middle;resizable=0;points=[];autosize=1;" vertex="1" parent="sIDR_PX_A5w2goP3o4VN-55">
          <mxGeometry y="45.19999999999999" width="80" height="30" as="geometry" />
        </mxCell>
        <mxCell id="sIDR_PX_A5w2goP3o4VN-57" style="edgeStyle=orthogonalEdgeStyle;rounded=0;orthogonalLoop=1;jettySize=auto;html=1;entryX=0;entryY=0.5;entryDx=0;entryDy=0;" edge="1" parent="sIDR_PX_A5w2goP3o4VN-86" source="sIDR_PX_A5w2goP3o4VN-21" target="sIDR_PX_A5w2goP3o4VN-23">
          <mxGeometry relative="1" as="geometry" />
        </mxCell>
        <mxCell id="sIDR_PX_A5w2goP3o4VN-58" value="" style="html=1;dashed=0;whitespace=wrap;fillColor=#2875E2;strokeColor=#ffffff;points=[[0.005,0.63,0],[0.1,0.2,0],[0.9,0.2,0],[0.5,0,0],[0.995,0.63,0],[0.72,0.99,0],[0.5,1,0],[0.28,0.99,0]];shape=mxgraph.kubernetes.icon;prIcon=job" vertex="1" parent="sIDR_PX_A5w2goP3o4VN-86">
          <mxGeometry x="35" y="310" width="26.25" height="25.2" as="geometry" />
        </mxCell>
        <mxCell id="sIDR_PX_A5w2goP3o4VN-59" value="" style="html=1;dashed=0;whitespace=wrap;fillColor=#2875E2;strokeColor=#ffffff;points=[[0.005,0.63,0],[0.1,0.2,0],[0.9,0.2,0],[0.5,0,0],[0.995,0.63,0],[0.72,0.99,0],[0.5,1,0],[0.28,0.99,0]];shape=mxgraph.kubernetes.icon;prIcon=job" vertex="1" parent="sIDR_PX_A5w2goP3o4VN-86">
          <mxGeometry x="35" y="350" width="26.25" height="25.2" as="geometry" />
        </mxCell>
        <mxCell id="sIDR_PX_A5w2goP3o4VN-60" value="" style="html=1;dashed=0;whitespace=wrap;fillColor=#CC6600;strokeColor=#ffffff;points=[[0.005,0.63,0],[0.1,0.2,0],[0.9,0.2,0],[0.5,0,0],[0.995,0.63,0],[0.72,0.99,0],[0.5,1,0],[0.28,0.99,0]];shape=mxgraph.kubernetes.icon;prIcon=job" vertex="1" parent="sIDR_PX_A5w2goP3o4VN-86">
          <mxGeometry x="75" y="324.8" width="26.25" height="25.2" as="geometry" />
        </mxCell>
        <mxCell id="sIDR_PX_A5w2goP3o4VN-61" value="" style="html=1;dashed=0;whitespace=wrap;fillColor=#CC6600;strokeColor=#ffffff;points=[[0.005,0.63,0],[0.1,0.2,0],[0.9,0.2,0],[0.5,0,0],[0.995,0.63,0],[0.72,0.99,0],[0.5,1,0],[0.28,0.99,0]];shape=mxgraph.kubernetes.icon;prIcon=job" vertex="1" parent="sIDR_PX_A5w2goP3o4VN-86">
          <mxGeometry x="75" y="362.2" width="26.25" height="25.2" as="geometry" />
        </mxCell>
        <mxCell id="sIDR_PX_A5w2goP3o4VN-62" style="rounded=0;orthogonalLoop=1;jettySize=auto;html=1;entryX=0.9;entryY=0.2;entryDx=0;entryDy=0;entryPerimeter=0;exitX=0;exitY=1;exitDx=0;exitDy=0;dashed=1;" edge="1" parent="sIDR_PX_A5w2goP3o4VN-86" source="sIDR_PX_A5w2goP3o4VN-25" target="sIDR_PX_A5w2goP3o4VN-58">
          <mxGeometry relative="1" as="geometry" />
        </mxCell>
        <mxCell id="sIDR_PX_A5w2goP3o4VN-63" style="edgeStyle=none;rounded=0;orthogonalLoop=1;jettySize=auto;html=1;entryX=0.9;entryY=0.2;entryDx=0;entryDy=0;entryPerimeter=0;dashed=1;" edge="1" parent="sIDR_PX_A5w2goP3o4VN-86" source="sIDR_PX_A5w2goP3o4VN-25" target="sIDR_PX_A5w2goP3o4VN-60">
          <mxGeometry relative="1" as="geometry" />
        </mxCell>
        <mxCell id="sIDR_PX_A5w2goP3o4VN-64" style="edgeStyle=none;rounded=0;orthogonalLoop=1;jettySize=auto;html=1;entryX=0.5;entryY=0;entryDx=0;entryDy=0;entryPerimeter=0;dashed=1;" edge="1" parent="sIDR_PX_A5w2goP3o4VN-86" source="sIDR_PX_A5w2goP3o4VN-25" target="sIDR_PX_A5w2goP3o4VN-59">
          <mxGeometry relative="1" as="geometry" />
        </mxCell>
        <mxCell id="sIDR_PX_A5w2goP3o4VN-65" style="edgeStyle=none;rounded=0;orthogonalLoop=1;jettySize=auto;html=1;entryX=0.9;entryY=0.2;entryDx=0;entryDy=0;entryPerimeter=0;dashed=1;" edge="1" parent="sIDR_PX_A5w2goP3o4VN-86" source="sIDR_PX_A5w2goP3o4VN-25" target="sIDR_PX_A5w2goP3o4VN-61">
          <mxGeometry relative="1" as="geometry" />
        </mxCell>
        <mxCell id="sIDR_PX_A5w2goP3o4VN-68" value="&lt;div style=&quot;font-size: 16px&quot;&gt;&lt;font style=&quot;font-size: 16px&quot;&gt;&lt;b&gt;Workers&lt;br&gt;&lt;/b&gt;&lt;/font&gt;&lt;/div&gt;" style="text;html=1;align=center;verticalAlign=middle;resizable=0;points=[];autosize=1;" vertex="1" parent="sIDR_PX_A5w2goP3o4VN-86">
          <mxGeometry x="30" y="394.6" width="80" height="20" as="geometry" />
        </mxCell>
        <mxCell id="sIDR_PX_A5w2goP3o4VN-70" value="&lt;div style=&quot;font-size: 16px&quot;&gt;&lt;font style=&quot;font-size: 16px&quot;&gt;&lt;b&gt;Storage&lt;br&gt;&lt;/b&gt;&lt;/font&gt;&lt;/div&gt;" style="text;html=1;align=center;verticalAlign=middle;resizable=0;points=[];autosize=1;" vertex="1" parent="sIDR_PX_A5w2goP3o4VN-86">
          <mxGeometry x="160" y="394.6" width="80" height="20" as="geometry" />
        </mxCell>
        <mxCell id="sIDR_PX_A5w2goP3o4VN-72" value="&lt;div style=&quot;font-size: 16px&quot;&gt;&lt;font style=&quot;font-size: 16px&quot;&gt;&lt;b&gt;Frontend&lt;br&gt;&lt;/b&gt;&lt;/font&gt;&lt;/div&gt;" style="text;html=1;align=center;verticalAlign=middle;resizable=0;points=[];autosize=1;rotation=-90;" vertex="1" parent="sIDR_PX_A5w2goP3o4VN-86">
          <mxGeometry x="-15" y="150" width="80" height="20" as="geometry" />
        </mxCell>
        <mxCell id="sIDR_PX_A5w2goP3o4VN-77" value="&lt;div style=&quot;font-size: 16px&quot;&gt;&lt;font style=&quot;font-size: 16px&quot;&gt;&lt;b&gt;Load Balancer&lt;br&gt;&lt;/b&gt;&lt;/font&gt;&lt;/div&gt;" style="text;html=1;align=center;verticalAlign=middle;resizable=0;points=[];autosize=1;" vertex="1" parent="sIDR_PX_A5w2goP3o4VN-86">
          <mxGeometry x="147" y="60.00000000000003" width="130" height="20" as="geometry" />
        </mxCell>
        <mxCell id="sIDR_PX_A5w2goP3o4VN-82" value="" style="curved=1;endArrow=classic;html=1;strokeColor=#000000;exitX=0.9;exitY=0.2;exitDx=0;exitDy=0;exitPerimeter=0;entryX=1;entryY=1;entryDx=0;entryDy=0;" edge="1" parent="sIDR_PX_A5w2goP3o4VN-86" source="sIDR_PX_A5w2goP3o4VN-15" target="sIDR_PX_A5w2goP3o4VN-73">
          <mxGeometry width="50" height="50" relative="1" as="geometry">
            <mxPoint y="200" as="sourcePoint" />
            <mxPoint x="50" y="150" as="targetPoint" />
            <Array as="points">
              <mxPoint x="250" y="270" />
            </Array>
          </mxGeometry>
        </mxCell>
      </root>
    </mxGraphModel>
  </diagram>
</mxfile>
